<svg xmlns="http://www.w3.org/2000/svg" viewBox="0 0 1000 500" fill="#94a3b8" opacity="0.28">

  <!-- North America -->
  <path d="M33,100 L28,70 L38,53 L72,50 L117,50 L158,53 L200,52 L242,48 L280,47
           L310,63 L325,80 L322,97 L310,122 L294,133 L278,162 L275,180
           L259,175 L253,192 L267,205 L278,225 L267,200 L244,192 L228,187
           L194,187 L175,162 L156,133 L153,114 L127,95 L100,90 L72,97 Z"/>

  <!-- Greenland -->
  <path d="M285,47 L298,28 L322,18 L348,22 L362,35 L353,47 L330,50 Z"/>

  <!-- South America -->
  <path d="M278,225 L287,230 L313,220 L342,218 L372,228 L398,258 L403,275
           L402,314 L388,330 L356,343 L342,358 L328,382 L314,403 L300,403
           L291,390 L293,372 L285,352 L275,333 L275,308 L278,258 L272,234 Z"/>

  <!-- Iceland -->
  <path d="M360,65 L370,55 L385,52 L396,58 L397,68 L386,74 L370,73 Z"/>

  <!-- Great Britain -->
  <path d="M477,118 L480,102 L487,95 L493,100 L489,112 L483,120 Z"/>
  <!-- Ireland -->
  <path d="M471,114 L474,105 L480,102 L481,110 L477,117 Z"/>

  <!-- Europe + Scandinavia -->
  <path d="M476,147 L473,137 L479,130 L490,128 L498,117 L507,108 L515,100
           L522,93 L527,87 L529,78 L533,68 L542,56 L553,52 L567,52 L578,53
           L591,57 L595,62 L586,70 L582,80 L569,87 L563,95 L552,98 L549,108
           L549,118 L552,126 L558,134 L556,143 L551,150 L544,156 L543,162
           L540,156 L534,133 L528,129 L519,133 L512,140 L509,148 L503,153
           L492,152 L486,150 L480,147 Z"/>

  <!-- Africa -->
  <path d="M453,208 L469,183 L473,163 L479,150 L485,147 L498,144 L520,142
           L532,147 L545,147 L567,148 L578,150 L592,162 L601,173 L609,187
           L617,208 L617,220 L612,232 L611,244 L614,265 L611,281 L603,300
           L589,323 L575,340 L561,348 L553,348 L544,342 L533,328 L528,311
           L528,290 L531,265 L525,248 L508,237 L489,232 L465,237 L453,245
           L455,225 Z"/>

  <!-- Madagascar -->
  <path d="M598,283 L607,268 L615,272 L617,290 L612,305 L605,308 L598,300 Z"/>

  <!-- Arabia -->
  <path d="M592,162 L598,170 L606,176 L617,178 L630,175 L638,183 L641,195
           L644,207 L641,220 L636,222 L625,214 L617,208 L609,187 L601,173 Z"/>

  <!-- Asia mainland -->
  <path d="M578,150 L578,139 L572,131 L561,125 L550,125 L549,118 L552,100
           L563,95 L579,90 L582,80 L598,68 L614,61 L628,58 L651,55 L672,52
           L697,50 L722,49 L750,47 L778,47 L806,50 L834,52 L856,55 L878,53
           L900,52 L922,55 L944,56 L962,63 L972,75 L972,86 L961,90 L950,86
           L929,83 L906,83 L889,86 L867,86 L853,90 L838,94 L820,100 L808,108
           L806,118 L808,129 L820,133 L828,143 L837,151 L845,159 L853,165
           L858,161 L862,151 L869,143 L878,140 L889,143 L897,152 L900,161
           L897,165 L886,168 L871,168 L856,173 L847,180 L839,187 L836,200
           L831,212 L820,222 L811,226 L803,226 L797,220 L789,222 L778,231
           L769,237 L761,233 L756,225 L750,220 L742,222 L733,229 L722,232
           L711,235 L703,237 L697,248 L692,259 L687,252 L681,245 L670,242
           L659,237 L647,228 L641,220 L644,207 L649,199 L649,189 L642,177
           L634,168 L622,161 L611,156 L600,156 L592,162 Z"/>

  <!-- Indian subcontinent -->
  <path d="M689,175 L700,172 L714,175 L728,184 L734,195 L736,208 L736,222
           L732,236 L728,244 L720,247 L712,244 L703,237 L697,225 L694,214
           L689,200 L687,186 Z"/>

  <!-- Sri Lanka -->
  <path d="M731,245 L736,240 L740,243 L741,250 L736,255 L731,252 Z"/>

  <!-- SE Asia (Malay Peninsula) -->
  <path d="M769,237 L775,228 L784,225 L792,228 L800,237 L803,248 L797,259
           L789,262 L781,259 L773,253 L769,248 Z"/>

  <!-- Sumatra -->
  <path d="M775,252 L786,238 L803,234 L814,242 L814,255 L806,264 L794,262 L780,257 Z"/>

  <!-- Borneo -->
  <path d="M828,245 L836,231 L850,228 L861,234 L864,248 L858,261 L847,265 L834,259 L828,250 Z"/>

  <!-- Japan (Honshu) -->
  <path d="M869,143 L873,128 L881,125 L887,131 L884,143 L876,150 L869,148 Z"/>

  <!-- Philippines -->
  <path d="M903,220 L908,213 L916,215 L917,225 L912,233 L905,232 Z"/>

  <!-- Australia -->
  <path d="M778,313 L784,292 L800,281 L820,275 L844,275 L866,281 L886,290
           L900,303 L908,316 L908,330 L906,344 L897,356 L878,363 L856,366
           L833,363 L814,355 L800,342 L789,326 L780,313 Z"/>

  <!-- Tasmania -->
  <path d="M845,380 L852,373 L860,376 L861,385 L855,391 L847,389 Z"/>

  <!-- New Zealand North Island -->
  <path d="M950,393 L958,381 L965,381 L967,393 L963,403 L956,404 Z"/>
  <!-- New Zealand South Island -->
  <path d="M951,413 L960,406 L967,410 L967,422 L960,428 L952,425 Z"/>

</svg>
